<svg xmlns="http://www.w3.org/2000/svg" xmlns:xlink="http://www.w3.org/1999/xlink" width="500" zoomAndPan="magnify" viewBox="0 0 375 374.999991" height="500" preserveAspectRatio="xMidYMid meet" version="1.0"><defs><clipPath id="46947c330b"><path d="M 15.203125 16 L 359 16 L 359 359.132812 L 15.203125 359.132812 Z M 15.203125 16 " clip-rule="nonzero"/></clipPath></defs><g clip-path="url(#46947c330b)"><path fill="#ffffff" d="M 352.191406 245.339844 C 348.585938 245.339844 345.664062 242.417969 345.664062 238.8125 L 345.664062 38.574219 L 234.894531 149.378906 C 232.34375 151.925781 228.210938 151.925781 225.664062 149.378906 C 223.117188 146.828125 223.117188 142.695312 225.664062 140.144531 L 347.578125 18.195312 C 349.441406 16.328125 352.246094 15.769531 354.6875 16.78125 C 357.125 17.792969 358.714844 20.171875 358.714844 22.8125 L 358.714844 238.8125 C 358.714844 242.417969 355.796875 245.339844 352.191406 245.339844 Z M 22.496094 359.132812 C 18.894531 359.132812 15.972656 356.210938 15.972656 352.605469 L 15.972656 125.023438 C 15.972656 122.382812 17.5625 120 20 118.992188 C 22.441406 117.980469 25.246094 118.539062 27.113281 120.402344 L 140.871094 234.199219 C 143.417969 236.746094 143.417969 240.878906 140.871094 243.425781 C 138.320312 245.980469 134.1875 245.980469 131.640625 243.425781 L 29.023438 140.78125 L 29.023438 352.605469 C 29.023438 356.210938 26.101562 359.132812 22.496094 359.132812 Z M 352.191406 359.132812 C 350.519531 359.132812 348.851562 358.496094 347.578125 357.21875 L 17.882812 27.425781 C 15.335938 24.878906 15.335938 20.746094 17.882812 18.195312 C 20.433594 15.644531 24.5625 15.644531 27.113281 18.195312 L 356.804688 347.988281 C 359.351562 350.535156 359.351562 354.671875 356.804688 357.21875 C 355.527344 358.496094 353.859375 359.132812 352.191406 359.132812 " fill-opacity="1" fill-rule="nonzero"/></g></svg>