<svg xmlns="http://www.w3.org/2000/svg" xmlns:xlink="http://www.w3.org/1999/xlink" width="500" zoomAndPan="magnify" viewBox="0 0 375 374.999991" height="500" preserveAspectRatio="xMidYMid meet" version="1.0"><defs><clipPath id="1046d2d013"><path d="M 36.097656 38 L 339 38 L 339 339.75 L 36.097656 339.75 Z M 36.097656 38 " clip-rule="nonzero"/></clipPath></defs><g clip-path="url(#1046d2d013)"><path fill="#000000" d="M 332.703125 239.625 C 329.53125 239.625 326.957031 237.050781 326.957031 233.878906 L 326.957031 57.6875 L 229.464844 155.183594 C 227.21875 157.425781 223.582031 157.425781 221.339844 155.183594 C 219.097656 152.941406 219.097656 149.304688 221.339844 147.058594 L 328.640625 39.757812 C 330.28125 38.113281 332.753906 37.621094 334.902344 38.511719 C 337.046875 39.398438 338.445312 41.496094 338.445312 43.816406 L 338.445312 233.878906 C 338.445312 237.050781 335.875 239.625 332.703125 239.625 Z M 42.523438 339.75 C 39.351562 339.75 36.78125 337.179688 36.78125 334.007812 L 36.78125 133.753906 C 36.78125 131.429688 38.179688 129.332031 40.328125 128.445312 C 42.472656 127.558594 44.941406 128.046875 46.585938 129.691406 L 146.710938 229.820312 C 148.953125 232.0625 148.953125 235.699219 146.710938 237.941406 C 144.464844 240.183594 140.828125 240.183594 138.585938 237.941406 L 48.269531 147.617188 L 48.269531 334.007812 C 48.269531 337.179688 45.695312 339.75 42.523438 339.75 Z M 332.703125 339.75 C 331.230469 339.75 329.761719 339.1875 328.640625 338.066406 L 38.464844 47.878906 C 36.21875 45.636719 36.21875 42 38.464844 39.757812 C 40.707031 37.511719 44.34375 37.511719 46.585938 39.757812 L 336.761719 329.945312 C 339.007812 332.1875 339.007812 335.824219 336.761719 338.066406 C 335.640625 339.1875 334.171875 339.75 332.703125 339.75 " fill-opacity="1" fill-rule="nonzero"/></g></svg>